# xmcd CD database file
# Copyright (C) 1993-1998 Ti Kan
#
# Track frame offsets:
#  157
#  22752
#  36922
#  51862
#  69122
#  92200
#  105787
#  139095
#  151360
#  165855
#
# Disc length: 2450 seconds
#
# Revision: 1
# Processed by: cddbd v1.4b41PL1 Copyright (c) Steve Scherf et al.
# Submitted via: KiC 2.1 - (C) 1996-1998 Alwin Hoogerdijk
#
DISCID=6a09900a
DTITLE=Johnny Adams - From The Heart
DYEAR=1900
DGENRE=
TTITLE0=I Feel Like Breaking Up Somebody's Home
TTITLE1=Why Do I
TTITLE2=Laughin' And Clownin'
TTITLE3=If I Ever Had A Good Thing
TTITLE4=Scarred Knees
TTITLE5=From The Heart
TTITLE6=Your Love Is So Doggone Good
TTITLE7=We Don't See Eye To Eye
TTITLE8=Roadblock
TTITLE9=Teach Me To Forget
EXTD=
EXTT0=
EXTT1=
EXTT2=
EXTT3=
EXTT4=
EXTT5=
EXTT6=
EXTT7=
EXTT8=
EXTT9=
PLAYORDER=
